<svg width="20" height="20" viewBox="0 0 20 20" fill="none" xmlns="http://www.w3.org/2000/svg">
<mask id="mask0_134_2105" style="mask-type:alpha" maskUnits="userSpaceOnUse" x="0" y="0" width="20" height="20">
<rect width="20" height="20" fill="#D9D9D9"/>
</mask>
<g mask="url(#mask0_134_2105)">
<path d="M6.31178 17.6838C6.10393 17.473 6 17.2234 6 16.935C6 16.6472 6.10393 16.3979 6.31178 16.1871L12.4018 10.0105L6.29099 3.81291C6.097 3.61616 6 3.37022 6 3.0751C6 2.77997 6.10393 2.52701 6.31178 2.31621C6.51963 2.1054 6.76573 2 7.05007 2C7.33386 2 7.57968 2.1054 7.78753 2.31621L14.7714 9.42029C14.8545 9.50461 14.9135 9.59596 14.9485 9.69433C14.9828 9.79271 15 9.89811 15 10.0105C15 10.123 14.9828 10.2284 14.9485 10.3267C14.9135 10.4251 14.8545 10.5165 14.7714 10.6008L7.76674 17.7049C7.57275 17.9016 7.33386 18 7.05007 18C6.76573 18 6.51963 17.8946 6.31178 17.6838Z" fill="white"/>
</g>
</svg>
