<svg width="20" height="20" viewBox="0 0 20 20" fill="none" xmlns="http://www.w3.org/2000/svg">
<mask id="mask0_134_2109" style="mask-type:alpha" maskUnits="userSpaceOnUse" x="0" y="0" width="20" height="20">
<rect width="20" height="20" transform="matrix(-1 0 0 1 20 0)" fill="#E2A40A"/>
</mask>
<g mask="url(#mask0_134_2109)">
<path d="M13.6882 17.6838C13.8961 17.473 14 17.2234 14 16.935C14 16.6472 13.8961 16.3979 13.6882 16.1871L7.59815 10.0105L13.709 3.81291C13.903 3.61616 14 3.37022 14 3.0751C14 2.77997 13.8961 2.52701 13.6882 2.31621C13.4804 2.1054 13.2343 2 12.9499 2C12.6661 2 12.4203 2.1054 12.2125 2.31621L5.22864 9.42029C5.1455 9.50461 5.08647 9.59596 5.05155 9.69433C5.01718 9.79271 5 9.89811 5 10.0105C5 10.123 5.01718 10.2284 5.05155 10.3267C5.08647 10.4251 5.1455 10.5165 5.22864 10.6008L12.2333 17.7049C12.4273 17.9016 12.6661 18 12.9499 18C13.2343 18 13.4804 17.8946 13.6882 17.6838Z" fill="#3F6212"/>
</g>
</svg>
