<svg width="24" height="24" viewBox="0 0 24 24" fill="none" xmlns="http://www.w3.org/2000/svg">
<path d="M17.657 16.6572L13.414 20.9002C13.0392 21.2753 12.5307 21.4861 12.0005 21.4861C11.4703 21.4861 10.9618 21.2753 10.587 20.9002L6.343 16.6572C3.21892 13.533 3.21901 8.46772 6.34319 5.34359C9.46738 2.21946 14.5326 2.21946 17.6568 5.34359C20.781 8.46772 20.7811 13.533 17.657 16.6572V16.6572" stroke="white" stroke-width="2" stroke-linecap="round" stroke-linejoin="round"/>
<path d="M15 11C15 12.6557 13.6557 14 12 14C10.3443 14 9 12.6557 9 11C9 9.34425 10.3443 8 12 8C13.6557 8 15 9.34425 15 11V11" stroke="white" stroke-width="2" stroke-linecap="round" stroke-linejoin="round"/>
</svg>
